<svg xmlns="http://www.w3.org/2000/svg"  xmlns:xlink="http://www.w3.org/1999/xlink"  width="1.01em" height="1em" viewBox="0 0 357 356" data-astro-cid-ihmljexk="" data-icon="logo-white2">  <symbol id="ai:local:logo-white2"><g fill="#fff" stroke="#E0E0E0"><path d="m355.936 86.36.152-.476-.477-.152-110.932-35.287-.477-.151-.151.476-35.287 110.933-.151.476.476.152 110.932 35.286.477.152.151-.477L355.936 86.36Z"></path><path d="m.995 270.122-.151.477.476.151 203.798 64.827.224.072.198-.127 89.25-57.295.896-.574-1.014-.323-190.486-60.592 60.794-191.12.325-1.02-.991.407L66.361 65.22l-.216.088-.071.223L.995 270.122Z"></path></g></symbol><use xlink:href="#ai:local:logo-white2"></use>  </svg>